<svg height="512pt" viewBox="0 -32 512 512" width="512pt" xmlns="http://www.w3.org/2000/svg"><path d="m294.636719 354.148438s-1.515625 56.15625 26.511719 84.183593h-128.964844c28.027344-28.027343 26.511718-84.183593 26.511718-84.183593" fill="#5a5a5a"/><path d="m329.023438 10.167969h-318.972657v343.917969h491.898438v-343.917969h-93.539063" fill="#fff5f5"/><path d="m46.199219 47.117188h420.933593v241.054687h-420.933593zm0 0" fill="#5ecef4"/><path d="m366.367188 111.308594c-11.660157-.199219-21.273438 9.09375-21.472657 20.753906-.199219 11.664062 9.09375 21.277344 20.753907 21.472656 11.660156.199219 21.273437-9.09375 21.472656-20.753906.199218-11.660156-9.09375-21.273438-20.753906-21.472656zm0 0" fill="#919196"/><path d="m365.652344 153.539062c-17.5-.300781-31.929688 13.644532-32.226563 31.144532s13.648438 31.929687 31.148438 32.226562 31.929687-13.648437 32.226562-31.148437-13.648437-31.925781-31.148437-32.222657zm0 0" fill="#ffda44"/><path d="m79.636719 79.152344h172.175781v176.863281h-172.175781zm0 0" fill="#fff5f5"/><path d="m79.636719 79.152344h172.175781v57.871094h-172.175781zm0 0" fill="#cec5c2"/><path d="m501.949219.121094h-93.539063c-5.550781 0-10.050781 4.496094-10.050781 10.046875s4.5 10.050781 10.050781 10.050781h83.492188v323.816406h-471.804688v-323.816406h308.925782c5.546874 0 10.046874-4.5 10.046874-10.050781s-4.5-10.046875-10.046874-10.046875h-318.972657c-5.550781 0-10.050781 4.496094-10.050781 10.046875v343.914062c0 5.550781 4.5 10.050781 10.050781 10.050781h198.324219c-.925781 15.425782-4.789062 45.648438-20.589844 64.148438h-85.292968c-5.550782 0-10.046876 4.5-10.046876 10.050781s4.496094 10.050781 10.046876 10.050781h302.878906c5.550781 0 10.050781-4.5 10.050781-10.050781s-4.5-10.050781-10.050781-10.050781h-79.828125c-15.796875-18.503906-19.660157-48.722656-20.585938-64.148438h196.992188c5.550781 0 10.050781-4.5 10.050781-10.050781v-343.914062c0-5.550781-4.5-10.046875-10.050781-10.046875zm-200.695313 428.164062h-89.179687c12.53125-22.367187 15.691406-49.605468 16.453125-64.152344h56.273437c.761719 14.546876 3.921875 41.785157 16.453125 64.152344zm0 0"/><path d="m477.179688 288.171875v-241.054687c0-5.550782-4.5-10.050782-10.046876-10.050782h-420.933593c-5.546875 0-10.046875 4.5-10.046875 10.050782v241.054687c0 5.550781 4.5 10.046875 10.046875 10.046875h420.933593c5.546876.003906 10.046876-4.496094 10.046876-10.046875zm-20.097657-10.050781h-400.832031v-220.957032h400.832031zm0 0"/><path d="m42.367188 311.304688c-5.144532 2.085937-7.617188 7.949218-5.53125 13.089843l.105468.25c1.585938 3.90625 5.34375 6.269531 9.3125 6.269531 1.261719 0 2.539063-.238281 3.78125-.738281 5.140625-2.089843 7.617188-7.953125 5.527344-13.09375l-.105469-.25c-2.089843-5.144531-7.949219-7.621093-13.089843-5.527343zm0 0"/><path d="m68.5 311.289062c-5.148438 2.074219-7.640625 7.925782-5.570312 13.074219l.101562.25c1.578125 3.921875 5.34375 6.300781 9.324219 6.300781 1.25 0 2.519531-.234374 3.75-.726562 5.148437-2.074219 7.640625-7.925781 5.570312-13.074219l-.101562-.25c-2.070313-5.148437-7.925781-7.644531-13.074219-5.574219zm0 0"/><path d="m94.605469 311.289062c-5.148438 2.074219-7.644531 7.925782-5.574219 13.074219l.101562.25c1.578126 3.921875 5.347657 6.300781 9.328126 6.300781 1.246093 0 2.515624-.234374 3.746093-.726562 5.148438-2.074219 7.644531-7.925781 5.570313-13.074219l-.097656-.25c-2.074219-5.148437-7.929688-7.644531-13.074219-5.574219zm0 0"/><path d="m236.46875 310.691406c-5.546875 0-10.046875 4.496094-10.046875 10.046875s4.5 10.050781 10.046875 10.050781h37.585938c5.546874 0 10.046874-4.5 10.046874-10.050781s-4.5-10.046875-10.046874-10.046875zm0 0"/><path d="m359.492188 14.042969c1.578124 3.914062 5.34375 6.292969 9.320312 6.292969 1.25 0 2.523438-.234376 3.753906-.734376 5.148438-2.074218 7.636719-7.929687 5.5625-13.078124l-.09375-.230469c-2.078125-5.148438-7.9375-7.636719-13.082031-5.558594-5.144531 2.074219-7.632813 7.929687-5.558594 13.078125zm0 0"/><path d="m307.914062 190.664062 15.828126.269532c.609374 4.488281 1.941406 8.804687 3.9375 12.820312-12.386719 6.765625-20.398438 19.65625-20.648438 34.265625-.089844 5.546875 4.332031 10.121094 9.878906 10.214844.058594.003906.117188.003906.175782.003906 5.46875 0 9.949218-4.390625 10.042968-9.878906.148438-8.726563 5.878906-16.21875 14.261719-18.648437l.113281-.035157c6.6875 4.601563 14.578125 7.152344 22.882813 7.292969.242187.003906.484375.003906.726562.003906 7.976563 0 15.625-2.238281 22.230469-6.417968 8.191406 2.761718 13.585938 10.390624 13.4375 19.054687-.089844 5.546875 4.332031 10.121094 9.878906 10.21875h.175782c5.46875 0 9.949218-4.386719 10.042968-9.878906.246094-14.46875-7.179687-27.515625-19.121094-34.738281 2.1875-4 3.699219-8.339844 4.472657-12.878907l15.828125.269531h.175781c5.46875 0 9.949219-4.386718 10.042969-9.878906.09375-5.550781-4.328125-10.125-9.875-10.21875l-17.660156-.300781c-2.679688-8.121094-7.78125-15.160156-14.472657-20.234375 3.746094-4.636719 6.0625-10.203125 6.703125-16.152344 15.550782-5.597656 26.015625-20.074218 26.300782-36.800781.089843-5.550781-4.332032-10.125-9.878907-10.21875-.058593 0-.117187 0-.175781 0-5.46875 0-9.949219 4.386719-10.042969 9.878906-.125 7.445313-4.328125 13.984375-10.769531 17.253907-5.414062-8.640626-14.949219-14.472657-25.886719-14.65625-10.960937-.175782-20.699219 5.34375-26.402343 13.816406-6.375-3.472656-10.390626-10.175782-10.265626-17.660156.09375-5.550782-4.328124-10.125-9.875-10.21875-.058593 0-.117187 0-.175781 0-5.46875 0-9.949219 4.386718-10.042969 9.878906-.285156 16.773437 9.734376 31.628906 25.160157 37.722656.445312 5.949219 2.570312 11.574219 6.148437 16.324219-6.859375 4.847656-12.203125 11.707031-15.15625 19.730469l-17.65625-.300782c-.058594 0-.113281 0-.171875 0-5.472656 0-9.953125 4.386719-10.046875 9.878906-.089844 5.550782 4.332032 10.125 9.878906 10.21875zm56.8125 16.207032c-5.777343-.097656-11.171874-2.4375-15.191406-6.59375-4.015625-4.15625-6.175781-9.628906-6.078125-15.410156.199219-11.808594 9.871094-21.273438 21.632813-21.273438.125 0 .25 0 .371094.003906 11.933593.203125 21.472656 10.074219 21.269531 22.003906-.09375 5.726563-2.402344 11.074219-6.488281 15.078126-.9375.554687-1.792969 1.257812-2.515626 2.097656-3.769531 2.722656-8.292968 4.179687-13 4.09375zm1.261719-85.503906c.066407 0 .128907 0 .191407.003906 6.101562.101562 10.980468 5.152344 10.878906 11.253906-.105469 6.101562-5.160156 11.003906-11.253906 10.875-2.957032-.046875-5.714844-1.246094-7.769532-3.371094-2.054687-2.125-3.160156-4.925781-3.109375-7.878906.105469-6.039062 5.050781-10.882812 11.0625-10.882812zm0 0"/><path d="m79.636719 266.0625h172.175781c5.550781 0 10.050781-4.496094 10.050781-10.046875v-176.863281c0-5.550782-4.5-10.050782-10.050781-10.050782h-172.175781c-5.546875 0-10.046875 4.5-10.046875 10.050782v176.863281c0 5.550781 4.5 10.046875 10.046875 10.046875zm10.050781-20.097656v-98.890625h152.074219v98.890625zm0-156.765625h152.074219v37.777343h-152.074219zm0 0"/><path d="m128.210938 98.039062h-22.109376c-5.550781 0-10.050781 4.5-10.050781 10.050782 0 5.550781 4.5 10.046875 10.050781 10.046875h22.109376c5.546874 0 10.046874-4.496094 10.046874-10.046875 0-5.550782-4.5-10.050782-10.046874-10.050782zm0 0"/><path d="m213.960938 155.980469h-107.859376c-5.550781 0-10.050781 4.496093-10.050781 10.046875 0 5.550781 4.5 10.050781 10.050781 10.050781h107.859376c5.550781 0 10.050781-4.5 10.050781-10.050781 0-5.550782-4.5-10.046875-10.050781-10.046875zm0 0"/><path d="m106.101562 207.109375h70.34375c5.546876 0 10.046876-4.5 10.046876-10.050781 0-5.546875-4.5-10.046875-10.046876-10.046875h-70.34375c-5.550781 0-10.050781 4.5-10.050781 10.046875 0 5.550781 4.5 10.050781 10.050781 10.050781zm0 0"/><path d="m199.222656 217.058594h-93.121094c-5.550781 0-10.050781 4.5-10.050781 10.050781 0 5.546875 4.5 10.046875 10.050781 10.046875h93.121094c5.546875 0 10.046875-4.5 10.046875-10.046875 0-5.550781-4.5-10.050781-10.046875-10.050781zm0 0"/><path d="m177.460938 104.207031c-2.078126-5.144531-7.933594-7.628906-13.082032-5.550781-5.144531 2.082031-7.632812 7.9375-5.550781 13.082031l.09375.230469c1.582031 3.910156 5.34375 6.285156 9.320313 6.285156 1.253906 0 2.527343-.234375 3.761718-.734375 5.144532-2.078125 7.628906-7.9375 5.550782-13.082031zm0 0"/></svg>